name processed_emg_signals
nRows=68
nColumns=7
 
endheader
time	LGLTMED	LRF	LADDLONG	LBF	LTA	LGM
20.949999999999886	0.0022988873226702	0.0061835369909113	0.0032467353674712	0.0040004232645983	0.3960355625555189	0.0009838463734376
20.959999999999887	0.0022749269607962	0.0061834834023836	0.0032377004829943	0.003998642226895	0.400194903511222	0.0009927893391948
20.969999999999885	0.0022519204742479	0.0061832491349454	0.0032297684243173	0.0039985731064213	0.4044498871951747	0.0010018750795512
20.979999999999887	0.0022298977603362	0.0061828117331166	0.0032229352761994	0.0040001747858975	0.4087961801615854	0.0010110941967636
20.989999999999885	0.0022088868535511	0.0061821492226394	0.0032171956423877	0.0040034032646413	0.4132292697534692	0.0010204370111791
20.999999999999886	0.0021889138892221	0.0061812401689216	0.0032125426595349	0.0040082117637038	0.4177444709845524	0.0010298935754931
21.009999999999884	0.0021700030709087	0.0061800637331766	0.0032089680135602	0.0040145508364918	0.4223369336969816	0.0010394536894163
21.019999999999886	0.0021521766415362	0.0061785997260136	0.0032064619584038	0.0040223684846708	0.427001649976801	0.0010491069147167
21.029999999999884	0.0021354548582818	0.0061768286582639	0.0032050133371241	0.0040316102791276	0.4317334618085445	0.0010588425906038
21.039999999999885	0.0021198559712094	0.0061747317888725	0.0032046096052899	0.0040422194857545	0.436527068949893	0.0010686498494203
21.049999999999883	0.0021053962056448	0.0061722911697253	0.0032052368566227	0.0040541371958094	0.4413770370073745	0.0010785176326096
21.059999999999885	0.0020920897482763	0.0061694896873156	0.0032068798508428	0.0040673024605869	0.4462778056945889	0.0010884347069259
21.069999999999883	0.0020799487369617	0.0061663111011726	0.0032095220436722	0.0040816524301268	0.4512236972553209	0.0010983896808573
21.079999999999885	0.002068983254219	0.0061627400789878	0.0032131456189439	0.0040971224956731	0.4562089250350155	0.0011083710212348
21.089999999999883	0.0020592013243725	0.006158762228389	0.0032177315227608	0.0041136464355879	0.4612276021853194	0.0011183670699995
21.099999999999884	0.0020506089143322	0.0061543641253214	0.0032232594996506	0.0041311565644121	0.4662737504877288	0.0011283660611033
21.109999999999882	0.002043209937978	0.0061495333390054	0.0032297081306622	0.0041495838847567	0.4713413092838769	0.0011383561375196
21.119999999999884	0.0020370062641273	0.0061442584534407	0.0032370548733505	0.0041688582416946	0.4764241445017334	0.0011483253683448
21.12999999999988	0.0020319977280593	0.0061385290854298	0.0032452761035967	0.0041889084793138	0.4815160577689979	0.0011582617659746
21.139999999999883	0.0020281821465699	0.0061323358991048	0.0032543471592066	0.0042096625990783	0.4866107956072213	0.0011681533033463
21.14999999999988	0.0020255553365241	0.0061256706169708	0.0032642423852252	0.0042310479196315	0.4917020587025406	0.0011779879312413
21.159999999999883	0.0020241111368699	0.0061185260275105	0.003274935180902	0.0042529912376649	0.4967835112511099	0.0011877535956472
21.16999999999988	0.0020238414340711	0.0061108959894344	0.003286398048242	0.0042754189894608	0.5018487903791558	0.001197438255181
21.179999999999882	0.0020247361909111	0.0061027754326897	0.0032986026420764	0.0042982574127086	0.50689151563877	0.001207029898578
21.18999999999988	0.0020267834786137	0.0060941603563606	0.0033115198215872	0.0043214327081866	0.5119052985810444	0.0012165165622527
21.199999999999882	0.0020299695122228	0.0060850478236079	0.0033251197032194	0.0043448712008929	0.5168837524080852	0.0012258863479365
21.20999999999988	0.0020342786891749	0.0060754359538056	0.0033393717149035	0.0043684995002118	0.5218205017051492	0.0012351274403999
21.21999999999988	0.0020396936309966	0.0060653239120416	0.0033542446515096	0.0043922446586988	0.5267091922536429	0.0012442281252624
21.22999999999988	0.0020461952280517	0.0060547118961604	0.0033697067314424	0.0044160343290781	0.5315435009249865	0.0012531768068938
21.23999999999988	0.0020537626872575	0.0060436011215251	0.0033857256542772	0.004439796919054	0.5363171456543541	0.0012619620264074
21.24999999999988	0.0020623735826873	0.006031993803682	0.0034022686593296	0.0044634617435507	0.541023895492123	0.0012705724797435
21.25999999999988	0.0020720039089671	0.0060198931391022	0.0034193025850389	0.004486959173997	0.5456575807295103	0.0012789970358376
21.26999999999988	0.0020826281373724	0.0060073032841759	0.0034367939290376	0.0045102207842791	0.5502121030933237	0.0012872247548672
21.27999999999988	0.0020942192745259	0.0059942293326285	0.0034547089087692	0.0045331794929828	0.5546814460030227	0.0012952449065643
21.28999999999988	0.0021067489235953	0.0059806772915254	0.0034730135225127	0.0045557697015503	0.5590596848813632	0.0013030469885809
21.29999999999988	0.0021201873478872	0.0059666540560261	0.0034916736106709	0.0045779274279732	0.5633409975078634	0.0013106207448862
21.309999999999878	0.0021345035367311	0.0059521673830373	0.0035106549171795	0.0045995904356396	0.5675196744022428	0.0013179561841729
21.31999999999988	0.0021496652735466	0.005937225863906	0.0035299231508971	0.0046206983569517	0.5715901292229426	0.0013250435982423
21.329999999999878	0.0021656392059797	0.0059218388962741	0.003549444046834	0.0046411928113237	0.5755469091638391	0.0013318735803372
21.33999999999988	0.0021823909179912	0.0059060166552077	0.0035691834270819	0.0046610175171723	0.5793847053302787	0.0013384370433819
21.349999999999877	0.0021998850037737	0.0058897700636987	0.0035891072613089	0.0046801183975275	0.583098363073549	0.0013447252380916
21.35999999999988	0.0022180851433721	0.0058731107626216	0.0036091817266865	0.004698443678919	0.5866828922608966	0.0013507297709042
21.369999999999877	0.0022369541798781	0.005856051080216	0.003629373267121	0.0047159439832434	0.5901334774562027	0.001356442621687
21.379999999999878	0.00225645419807	0.005838604001154	0.00364964865166	0.0047325724123682	0.5934454879844396	0.001361856161166
21.389999999999876	0.0022765466043645	0.0058207831352421	0.0036699750319468	0.0047482846252793	0.5966144878510543	0.0013669631680219
21.399999999999878	0.0022971922079466	0.0058026026857949	0.0036903199985942	0.0047630389076355	0.5996362454854285	0.0013717568455921
21.409999999999876	0.0023183513029353	0.0057840774177129	0.0037106516363473	0.0047767962336266	0.602506743275622	0.0013762308381138
21.419999999999877	0.0023399837514408	0.0057652226252839	0.0037309385779029	0.004789520320062	0.6052221868596623	0.00138037924644
21.429999999999875	0.0023620490673621	0.0057460540997251	0.0037511500562558	0.0048011776726347	0.6077790141366903	0.0013841966431546
21.439999999999877	0.0023845065007684	0.0057265880964781	0.0037712559554431	0.0048117376243263	0.6101739039593114	0.0013876780870075
21.449999999999875	0.0024073151227041	0.0057068413022608	0.0037912268595678	0.004821172365939	0.6124037844666077	0.0013908191365883
21.459999999999877	0.0024304339102488	0.0056868308018816	0.0038110340999874	0.0048294569687619	0.6144658410155529	0.0013936158631499
21.469999999999875	0.0024538218316597	0.0056665740448193	0.0038306498005669	0.0048365693994051	0.616357523667187	0.0013960648624951
21.479999999999876	0.0024774379314142	0.0056460888115752	0.0038500469209069	0.0048424905268624	0.6180765541829906	0.0013981632658383
21.489999999999874	0.0025012414149653	0.0056253931798093	0.0038691992974785	0.0048472041218876	0.6196209324867231	0.001399908749559
21.499999999999876	0.0025251917330157	0.0056045054902877	0.0038880816826017	0.0048506968487893	0.6209889425479715	0.0014012995437734
21.509999999999874	0.0025492486651108	0.0055834443126841	0.0039066697812114	0.0048529582497757	0.6221791576460919	0.0014023344396546
21.519999999999875	0.0025733724023457	0.0055622284112989	0.0039249402853521	0.0048539807220218	0.623190444977017	0.0014030127954457
21.529999999999873	0.0025975236289759	0.0055408767107732	0.0039428709063407	0.0048537594876786	0.6240219695700566	0.001403334541119
21.539999999999875	0.0026216636027184	0.0055194082618796	0.0039604404045347	0.0048522925570994	0.6246731974867101	0.0014033001816424
21.549999999999873	0.0026457542335215	0.0054978422074662	0.0039776286166425	0.0048495806855973	0.6251438982780064	0.0014029107988248
21.559999999999874	0.0026697581605808	0.0054761977486312	0.003994416480509	0.0048456273240705	0.6254341466805028	0.0014021680517174
21.569999999999872	0.0026936388273765	0.0054544941111931	0.0040107860573132	0.0048404385638442	0.6255443235337036	0.0014010741755482
21.579999999999874	0.0027173605544988	0.0054327505125165	0.0040267205511114	0.0048340230760747	0.6254751159036426	0.0013996319791772
21.589999999999872	0.0027408886100327	0.0054109861287405	0.0040422043256594	0.0048263920460565	0.6252275163993019	0.0013978448410566
21.599999999999874	0.0027641892772689	0.005389220062446	0.0040572229184532	0.0048175591027621	0.6248028216709416	0.001395716703691
21.60999999999987	0.0027872299195164	0.0053674713107909	0.0040717630519469	0.0048075402439328	0.6242026300823277	0.0013932520665953
21.619999999999873	0.0028099790418016	0.0053457587341355	0.0040858126419276	0.0047963537570325	0.6234288385521146	0.0013904559777546
